/* XPM */
static char *_46a277618f64aa6ea319e536bfbfd9b0lMMUzN42GgxXIeb[] = {
/* columns rows colors chars-per-pixel */
"64 64 151 2 ",
"   c #7E381F",
".  c #7E3920",
"X  c #7B351D",
"o  c #80391F",
"O  c #803A21",
"+  c #75341D",
"@  c #783721",
"#  c #874E3B",
"$  c #8F6C60",
"%  c #9A796E",
"&  c #926E61",
"*  c #937165",
"=  c #9C7E74",
"-  c #9E8077",
";  c #93766C",
":  c #947B72",
">  c #8D675A",
",  c #B1B1B2",
"<  c #B7B7B7",
"1  c #BBBBBB",
"2  c #B9BABA",
"3  c #ADADAE",
"4  c #A4A4A4",
"5  c #A7A7A8",
"6  c #AFAFB0",
"7  c #9FA0A0",
"8  c gray61",
"9  c #834B36",
"0  c #989797",
"q  c #949393",
"w  c #8F9090",
"e  c #777778",
"r  c #8B8482",
"t  c gray67",
"y  c #878788",
"u  c #835646",
"i  c #8B8B8B",
"p  c gray74",
"a  c #C1C2C2",
"s  c #C6C6C6",
"d  c gray79",
"f  c #838383",
"g  c #7F8080",
"h  c #CBCBCB",
"j  c #D0D0D1",
"k  c gray81",
"l  c #7B7B7B",
"z  c #A9A3A1",
"x  c gray45",
"c  c #6C6C6C",
"v  c gray77",
"b  c #D2D3D3",
"n  c #D4D5D5",
"m  c #753A25",
"M  c #5E3D32",
"N  c #725146",
"B  c #523024",
"V  c #4B2A1E",
"C  c #59362A",
"Z  c #5B392D",
"A  c #644337",
"S  c #876356",
"D  c #47261A",
"F  c #4E2C21",
"G  c #78574C",
"H  c #563529",
"J  c #716C6B",
"K  c gray36",
"L  c #5F5F60",
"P  c #646464",
"I  c #474848",
"U  c gray89",
"Y  c #7D4531",
"T  c #7A3E28",
"R  c #1F1F20",
"E  c #2C2C2C",
"W  c #3F3F40",
"Q  c #6B6767",
"!  c #444444",
"~  c gray14",
"^  c #272728",
"/  c #272828",
"(  c gray20",
")  c #3C3C3C",
"_  c #4B4B4B",
"`  c #3F4040",
"'  c #372A26",
"]  c #835B4D",
"[  c #504F4F",
"{  c #595655",
"}  c #C2BDBB",
"|  c gray33",
" . c #594B47",
".. c #2F3031",
"X. c #7C5244",
"o. c #B2B2B3",
"O. c #BFC0C0",
"+. c gainsboro",
"@. c #A7A8A8",
"#. c #676868",
"$. c #1D1D1D",
"%. c #373838",
"&. c #9D8178",
"*. c #82422B",
"=. c #733621",
"-. c #2D2927",
";. c gray71",
":. c #E7E8E8",
">. c #7A6D68",
",. c #979898",
"<. c #3A3432",
"1. c #453A37",
"2. c #794F40",
"3. c #6B321E",
"4. c #2B2523",
"5. c #736865",
"6. c #AFB0B1",
"7. c #4F504F",
"8. c #685B56",
"9. c #744B3C",
"0. c #714535",
"q. c #4A4543",
"w. c #5F6060",
"e. c #BCB0AB",
"r. c #ABA19D",
"t. c #7C412C",
"y. c #6D3420",
"u. c #85807E",
"i. c #978985",
"p. c #6D3F2F",
"a. c #643E31",
"s. c #28211E",
"d. c #463934",
"f. c #373738",
"g. c #5F2E1E",
"h. c #3C312D",
"j. c #49413E",
"k. c #41342F",
"l. c #342D2C",
"z. c #26201E",
"x. c #241D1B",
"c. c #625F5E",
"v. c #968E8B",
"b. c #4C3B36",
"n. c #623322",
"m. c #5C3426",
"M. c #622E1C",
"N. c #512E22",
"B. c #65311F",
"V. c #211917",
"C. c white",
/* pixels */
"  . X   o X o . X X X o X O o X X o o o X X X o o o o X X o o o X o o o o o o o o o o o o o o + o o o o o o + o o o o + o o o o ",
"X   +   o o X O X X o X o X o + o o X o O X X o X o X O + o X o o X + o o + + o o + o + o o o o + o o + o o + o o o o o o + o + ",
"+ + + + X + X X X + X X + X + X + X + X X X + X + X X + + X X + + + + + + + + o + + + X + + + + + o + + + + + + + + + + o + + o ",
"X   o o X X + X X O X X X X X o X X X X X X X X o X X o o X X X X X o o o o + o o o o + + o o o o + o o o o o O o + o o o + o o ",
"X o o X X X X X X X o X X o X X o X + X o X X X X X o X X o X X o o o o o o o o o o X o o + O + o + o + o O O @ + o + o + + o o ",
"+   X + X X X X X X X X X X X o X X X X X X X X X + X o X X X X + # $ % & * % * = = - = = = - - = * - % ; : : : o + o o o o o + ",
"+ X X X X X X + + + X + + X X + + X X X X X X X X + X + + + X + + > , , , < , 1 2 2 , 3 4 5 5 5 6 6 6 5 7 5 7 8 9 o + + + + + + ",
"X o X X X X X X o o X X o X o X X X X   X X +   X o X o X o X o o & , < , , < < 5 0 q q q q w e r 8 5 t 4 7 8 7 # o o o o o o o ",
"X o X O O O O X + o o X o o X X . . .       X o X       X   . . o & 6 6 6 , 6 q y 0 5 6 6 , , 6 6 4 q 0 4 7 7 8 u o o o o + o o ",
"X o + O X O X o X o o o X o X X   .     . X X           +       o > 6 6 , 5 i i 0 0 6 2 p a s d d d 6 y q 0 8 0 u o + o o + o o ",
"+ X + X X X X X X o X + X + X + X X X X X + + X X X   X +     X X > 5 t 7 f f y f g y q t p h j j k k 0 l q 0 0 u o o o o + + + ",
"X O O X O X X O o + o X X o o o   . X X     o   X X     o   .   o > 7 z f g x c x x e f y 7 v b n j j 6 l f q q u o + o o o o o ",
"@ O O O m M N B V V B C u Z V A S M Z D V B D F G N H B F B H + + S 8 0 J f K L P K I L e g 5 b U U b < i l y i Y + + o o o o o ",
"O O O O T r c R R R E W Q ! ~ x a P ^ / ( I ) _ K ( _ ` R ~ ' + o ] q f P i e c J J K [ { Q l 6 d p 6 8 q l e y # o o o + o o o ",
"+ X + X u } | ~ W | l e x f e e y P | c c l 8 b s _ ! ^ R /  .m o ] q y | W ..W ....W W L Q c y f 8 5 y q y J y X.o + o + o + + ",
"X o + o T c ( ^ L 8 t , , , q y K W y o.4 O.+.d c ! @.#.$.%.&.*.o u w 8 c ..E ) I [ _ W K y e y l 6 k 0 i f Q l X.o o o o + o o ",
"X o + o =.-.R [ l J g c x y 4 2 2 w @.;.2 ;.n w e 1 :.y $.E >.*.@ ] w 0 l W W _ K L #._ W x Q i f q 5 y e e L x G O o o + o o o ",
"X X X o m ^ ..7 6 f w y e Q L K x 2 3 ,.q g 3 O.j +.t K <.( 1.. O u i q y I W | { _ ! ..W L Q 8 f { { J | P { e 2.o o o o + o + ",
"+ X + X 3.4.^ K g f , 4 ,.4 6 g | Q : q 6 6 , s q c ! c K )  .+ + X.f l x [ ! | [ W W W W | L y q x e e I c | x 2.+ + + + + + + ",
"X X o X 3.4.E L c q +.6 l f 5 2 6 e c 8 ;.p t w P e y 4 P I 5.m + u g x #.P K L I W W W ! L K c y e Q e | c #.x 2.o o o o o o o ",
"X O X O 3.4.^ #.p 8 4 5 e L [ J @.8 @.j j 6.8 e 4 h d y | ) <.+ + u e x { L c w c W ^ ! I Q Q I e e e e { K J x =.o + o o o + o ",
"X X X X 3.-.R _ 7 6 s 6 f J y _ 7.x c q 6 w x c q 8 l c / K 8.. o 9.x x { ! c i g I ..! _ _ P W ! x l c | g e c 0.+ o o + o + o ",
"+ X X X 3.q.E W y q 7 8 4 e 4 0 i K E w.8 < g e x I x c E f e.*.+ 9.J c Q | x x e K E W I ^ W [ ! { P L e 7 Q L 0.o + + + + + o ",
"@ X X X 3.-...E x 5 q y f L L g x I ..y k < q y i o.a ! / y r.t.o 9.c Q Q x e q f P ..W Q W R ..| J | c 5 y K L 0.o o o o o + o ",
"X O + O y.<.i i P i 0 6 w x L I ( $...f p w 4 4 o.o.u.) ( 8 i.. o 0.Q P L L i w 0 0 f q , f { L L g c y 5 L { K 0.O o o o o o o ",
"X O X O 3.<.e y _ L g 5 7 0 8 [ / c c ( P x i 8 f | l w.I l  .+ O 0.L L L { f t L | e 5 2 8 e Q P J y 0 y [ | | A O o o + + + o ",
"+ X X X p.E W ^ { 6 8 f L [ L ! K 2 +.P <.@.1 q i ,.v c I ! ' + o p.K { | | P 3 w _ ! L i 0 w l e P 8 5 { ! q.I a.o + + o + o + ",
"X O X O O { ^ R W x e Q g J ( R [ 0 a x x 2 i y y l K c I ~ ' + o p.[ [ [ _ ! f 2 l Q x y 7 5 w J { i Q W W W W a.O o o + o o o ",
"O O o o T ! s.W L e y q 7 h q Q x i ,.x P l K P x P c a t E d.. o p._ _ _ _ I K 6 6 0 5 5 q y e x | y [ f.W W W g.o + o o o o o ",
"X O O o y.^ ..w 5 y 7 5 _ [ 7 5 @.f x #.! c i 8 o.1 h v x / h.@ o p._ I ! I ! I e 7 7 6 , 5 e J L P 8 I W W f.W C o o o o o o o ",
"+ X o X y.s.W L | { , n L ^ R | e j.%./ ~ _ P c c w.! P | ~ k.m X y.W W W W ! W | y 7 7 6 5 e Q { y y f.f.W f.f.C O + o o o + o ",
"+ O X o y.k.l.l.4.l.r r 5.r l.j.1.-.l.l.z.s.x.j.j.z.x.c.v.h.b.. O n...W W W W W f.c 7 5 , 6 g L L 5 c f.f.W f.f.m.O o + o + o + ",
"o o + o o + + + + M.o + o o o M.+ + M.+ + + M.o o + M.o o + + o O n.E W f.W ....E _ y 7 z 5 w Q 0 , L ^ ( ( ( ..C O o X O X O X ",
"+ o + o o o o o o o o o o o o o o o o o o o o o o o o o o o o o O n.E W W ( ( E ~ W L i 0 8 8 g 6 7 W ^ E E -.^ N.O o o X X O X ",
"+ o + o + o + + + o + o + o + + o o + o o + + + o + + + + o o + + g.l.W f.( ( ( E f.| L y w 7 7 7 P R ^ ^ ^ ~ R F X + + X + X X ",
"+ o o + o + o + + o o + o + o + o + + o + o o + + o o o + o o + X g.-.........( E ( P L i q w z f -.~ ~ ^ ^ R R F X X X X X X X ",
"+ o o o o + o o o o o + + o o o o o + o o o + o o + o o o o o + o g.E E l...( ..E ..P g 0 , 5 8 | R ~ z.~ ~ R R D o X o X X O X ",
"o o o + o o + o + o o o + o o o + o o + + o o o + o o o + o + o X B.~ ^ ^ E E -.^ ..P g 8 6 , q ( R ~ R R R $.R D X + X X X X X ",
"+ o + + + + + o o + + + + o + o + + + + + o + + + + + o o + + + X g.x.x.x.~ z.~ R ..5.l q z z r l.V.x.s.x.V.s.4.F o + X X + X X ",
"+ o + o + o o + o + o o o + o + o o o o o + o o o o o + + o o + X + 3.M.B.3.3.3.y.y.O # O u # T 3.3.3.3.3.+ 3.@ + o o X X X X X ",
"o o o o o o o o o o o o o o o + o o o o o o + o o o o o + o o o o O o X o O o O O X o o X X o o X o O O o O X o o O o o X X O X ",
"+ o + o o o o + + o o + o o o o o o o o + o + o o o + o + o o o o X X X o X X O X X X X O O O X X O X X o X X o o o o o X X X O ",
"+ o + + + o o + + o o o + o + + + o + + o + o o + o o + o + o o X X X X X X X X X + @ O O X X X + X X X X X + X X X X X X + X X ",
"o o o o o + o o o o + + + o o o o o o o + o o + o + o o o o o + X X X X X X X X o O O O X X X X X o X X o X . . o X X X o O X X ",
"o o o o o + o o o + o o o o o o o o + o o o o o o + o o o o o o X o O O X O X O O O O O X X O o o O O X O O O O O o X O o o o X ",
"o o o o o o o o o o o o + o o o o o o o o o o o o o o o o o o o o X X O O X X O O O O O X O X O o X X X O O O O O o X X X o o O ",
"+ + o + o + + o o o + o + o + o o + o + + o + + o + + o + o o + X X X X X X X X X X X X X X X X X X X X X X X X X X X X X X X X ",
"+ o + o o o + o + o o + o o o + o o + o o o + o + o o + o + o + X X X X X X X X X X X O O X X X X X X X X X X X X X X X X X X X ",
"o o + o o o o o + o o o + o o + o o o + o o + o o o o o o o o o o o o + o + o o o o o o o o o o X o X o o o + o o o o o o + o o ",
"o o + o o o o o o + o o o o o o o o o o + o o o o o o + + o o o + o o o o o o o o + o o o o + o X o o X o o + o o o o o o + o o ",
"+ + + o o + + o + + o + + o + + o + o + o + + + o + o + + + o + o + + o o + o + + + o + + + + o + X X X + o o + + + o + + + + o ",
"+ o o + + + o + o o + o + + o o o + + + + o o o + o + o o o + + o + + o o + + o o o + o + o + o o X X + o o + + o + + o o o o + ",
"o o o o o + o o + o + o o o o o o + o o o o o o o + o o o + o o o o + o o o + + o o o o + o o o X o o X + o o o o + + o o o o + ",
"+ o + o o + + o o o o o o + + o o o + o + + o + + o o o o o + o + o + o o + o o + o o + o + o + X X + X o o o o o o o + + o o o ",
"+ o + o + + + + + o o + + + o + o + + + o + + o o + o + + + o + + + o + + o + o + o + o + o + + X X X + X X X + + + + o o + + o ",
"o + o + o o o o + + + o o o o + + o o o + o o + + o + o + o + o o o o + o + o + o + o + + o o o X + X o X X + X + o o o + + o + ",
"+ o + o o o o o o o o o o o o + o o o o o o + o o + o o + o o o o o o + o o + o o + o o o + o + o + o + o o o o o o o o o o o o ",
"o o o o o o + o + o o o + o o o o o o + o + o o o o o o + o o o o o o o o o o o o o o o o o o o + o o o o o + + o o + o o + + o ",
"+ o o + o + + o o o + + o + + + + o o o o o + o o + + o o o o + + o + + + o o + o + o + o o o o o o o o + o + o o o o o o + o o ",
"+ o + o o o o + o + o o + o o o o o + + + o o + + o o o o + o o + o o o o o + o + o o o + + o + o + o + + o o o o + + o o o o + ",
"o o o o o o o o o o o o o o o o o o o o + o o o o + o o o o o + + o o o o o + o o o o o o + o o o + o o o o o o o o o + o o o o ",
"o o o o o + o o + o o o + o o o o o + o o o o o o o o o o o o o o o o o o o o o o o o o o o o o o o o + o o o o + o o o + o o o ",
"+ o + o o + + o o + o + + o o o o + o + + o + o + o o o o o o + + o o + o o + o + o + o + o o + o + o + o + o o o + o o o o + o ",
"+ + + o o o + o + o + o o o + + o + o o o + o + o + o + + + o o + o o + + + o + o + o o o + + o + o o + + o + + o o + o + + o + "
};
